<svg width="49" height="49" viewBox="0 0 49 49" fill="none" xmlns="http://www.w3.org/2000/svg">
<path d="M43.75 0H5.25C3.85761 0 2.52226 0.553124 1.53769 1.53769C0.553123 2.52226 0 3.85761 0 5.25L0 43.75C0 45.1424 0.553123 46.4777 1.53769 47.4623C2.52226 48.4469 3.85761 49 5.25 49H20.2617V32.3411H13.3711V24.5H20.2617V18.5238C20.2617 11.7261 24.3086 7.97125 30.5069 7.97125C33.4753 7.97125 36.5794 8.50063 36.5794 8.50063V15.1725H33.1592C29.7894 15.1725 28.7383 17.2638 28.7383 19.4086V24.5H36.2611L35.058 32.3411H28.7383V49H43.75C45.1424 49 46.4777 48.4469 47.4623 47.4623C48.4469 46.4777 49 45.1424 49 43.75V5.25C49 3.85761 48.4469 2.52226 47.4623 1.53769C46.4777 0.553124 45.1424 0 43.75 0Z" fill="#FF6E86"/>
</svg>
