<svg width="71" height="49" viewBox="0 0 71 49" fill="none" xmlns="http://www.w3.org/2000/svg">
<path d="M69.5164 7.66684C68.6998 4.649 66.294 2.27225 63.2392 1.46566C57.7023 0 35.5 0 35.5 0C35.5 0 13.2978 0 7.76076 1.46566C4.70604 2.27238 2.30017 4.649 1.48361 7.66684C0 13.1368 0 24.5495 0 24.5495C0 24.5495 0 35.9622 1.48361 41.4322C2.30017 44.45 4.70604 46.7278 7.76076 47.5343C13.2978 49 35.5 49 35.5 49C35.5 49 57.7022 49 63.2392 47.5343C66.294 46.7278 68.6998 44.45 69.5164 41.4322C71 35.9622 71 24.5495 71 24.5495C71 24.5495 71 13.1368 69.5164 7.66684ZM28.2386 34.9114V14.1877L46.7953 24.5498L28.2386 34.9114Z" fill="#FFAC61"/>
</svg>
